<svg xmlns="http://www.w3.org/2000/svg" viewBox="0 0 724 639">
 <g>
  <rect fill="none" id="canvas_background" height="641" width="726" y="-1" x="-1"/>
 </g>
 <g>
  <g>
   <defs transform="translate(-206.89654541015625,-208.56321716308594) translate(-10,-10) scale(10.344827651977539) translate(10,10)">
    <linearGradient id="icon">
     <stop offset="0" stop-color="#7f00ff"/>
     <stop offset="1" stop-color="#e100ff"/>
    </linearGradient>
   </defs>
   <g fill="#0b162a" id="SvgjsG9798"/>
   <g transform="matrix(7.241379356384277,0,0,7.241379356384277,206.89655303955078,165.9404620264185)" fill="url(#icon)">
    <g id="SvgjsG9800">
     <polygon id="svg_2" points="21.224573135375977,-8.51058578491211 -8.02442741394043,8.487415313720703 -0.2704277038574219,12.964412689208984 21.426572799682617,25.491413116455078 50.67457389831543,8.493412017822266"/>
     <polygon id="svg_3" points="51.77057456970215,10.888412475585938 22.6685733795166,27.832412719726562 22.781572341918945,36.19841384887695 51.428571701049805,36.19841384887695 51.428571701049805,36.2854118347168"/>
     <path id="svg_4" d="m21.428572,-22.915586c-27.614,0 -50,22.34 -50,49.954c0,3.145 0.294,6.16 0.849,9.16l15.151,0c0,0 0,0.088 0,0.087l0.249,-27.798c0,-0.029 0.089,-0.059 0.091,-0.087c0.002,-0.031 0.045,-0.062 0.049,-0.093c0.004,-0.029 0.032,-0.058 0.038,-0.086c0.006,-0.03 0.021,-0.062 0.029,-0.091c0.008,-0.028 0.024,-0.055 0.033,-0.083c0.01,-0.028 0.021,-0.058 0.032,-0.086c0.012,-0.027 0.027,-0.053 0.04,-0.079c0.013,-0.026 0.026,-0.055 0.041,-0.081c0.015,-0.025 0.033,-0.05 0.05,-0.074s0.032,-0.05 0.05,-0.073c0.019,-0.024 0.041,-0.047 0.061,-0.07c0.019,-0.021 0.036,-0.044 0.057,-0.064c0.023,-0.023 0.049,-0.044 0.074,-0.065c0.021,-0.018 0.04,-0.037 0.062,-0.054c0.026,-0.021 0.056,-0.038 0.084,-0.057c0.022,-0.015 0.042,0.016 0.065,0.003l0.004,0.044l0,0l0,0l31.991,-18.639c0.427,-0.248 0.954,-0.272 1.382,-0.025l32.203,18.581c0.053,0.03 0.104,0.059 0.152,0.096c0.014,0.011 0.025,0.021 0.039,0.032c0.033,0.027 0.066,0.053 0.096,0.083c0.017,0.016 0.03,0.033 0.046,0.051c0.024,0.027 0.05,0.054 0.072,0.083c0.016,0.021 0.028,0.043 0.043,0.064c0.02,0.028 0.039,0.055 0.056,0.084c0.014,0.023 0.024,0.049 0.037,0.073c0.014,0.028 0.03,0.057 0.042,0.087c0.011,0.025 0.019,0.052 0.027,0.078c0.01,0.03 0.022,0.06 0.031,0.092c0.007,0.026 0.011,0.054 0.016,0.081c0.007,0.031 0.015,0.062 0.02,0.096c0.004,0.028 -0.184,0.058 -0.182,0.086c0.003,0.031 -0.18,0.062 -0.18,0.093c0,0.001 0,0.002 0,0.003s0,0.002 0,0.003l0.295,27.705l15.856,0c0.555,-3 0.849,-6.015 0.849,-9.16c0,-27.614 -22.386,-49.954 -50,-49.954z"/>
     <polygon id="svg_5" points="19.749570846557617,27.878414154052734 13.518571853637695,24.194412231445312 -9.477428436279297,10.829414367675781 -9.475427627563477,36.19841384887695 19.428571701049805,36.19841384887695 19.428571701049805,36.2854118347168"/>
     <path id="svg_6" d="m53.334572,39.642414c-0.677,0 -1.226,0.598 -1.229,1.275c0,0.677 0.545,1.28 1.223,1.28c0.003,0 0.003,0 0.006,0c0.674,0 1.222,-0.598 1.222,-1.274c0.003,-0.677 -0.545,-1.278 -1.222,-1.281z"/>
     <path id="svg_7" d="m53.319572,44.270414c-0.321,0 -0.64,0.129 -0.866,0.358c-0.228,0.227 -0.358,0.542 -0.358,0.867c0,0.321 0.131,0.637 0.358,0.863c0.227,0.229 0.545,0.361 0.866,0.361s0.638,-0.132 0.867,-0.361c0.227,-0.227 0.358,-0.542 0.358,-0.863c0,-0.325 -0.132,-0.641 -0.358,-0.867c-0.23,-0.229 -0.546,-0.358 -0.867,-0.358z"/>
     <path id="svg_8" d="m48.703572,46.760414c-0.586,0.34 -0.784,1.09 -0.444,1.676c0.229,0.389 0.64,0.609 1.062,0.609c0.208,0 0.42,-0.056 0.612,-0.169c0.586,-0.34 0.784,-1.09 0.444,-1.675c-0.339,-0.581 -1.089,-0.78 -1.674,-0.441z"/>
     <path id="svg_9" d="m44.703572,49.082414c-0.586,0.34 -0.785,1.091 -0.441,1.676c0.227,0.392 0.637,0.609 1.06,0.609c0.208,0 0.42,-0.052 0.612,-0.165c0.585,-0.341 0.784,-1.091 0.444,-1.676s-1.09,-0.784 -1.675,-0.444z"/>
     <path id="svg_10" d="m24.705572,60.706414c-0.585,0.34 -0.784,1.087 -0.444,1.672c0.23,0.392 0.641,0.613 1.063,0.613c0.208,0 0.419,-0.056 0.612,-0.169c0.585,-0.34 0.784,-1.088 0.444,-1.673c-0.34,-0.585 -1.09,-0.783 -1.675,-0.443z"/>
     <path id="svg_11" d="m28.705572,58.381414c-0.585,0.34 -0.784,1.091 -0.444,1.676c0.23,0.389 0.641,0.609 1.063,0.609c0.208,0 0.42,-0.056 0.612,-0.166c0.585,-0.34 0.784,-1.09 0.444,-1.675s-1.09,-0.784 -1.675,-0.444z"/>
     <path id="svg_12" d="m32.705572,56.056414c-0.585,0.34 -0.784,1.09 -0.443,1.675c0.227,0.393 0.64,0.609 1.06,0.609c0.211,0 0.423,-0.052 0.615,-0.165c0.585,-0.34 0.784,-1.09 0.444,-1.676c-0.34,-0.584 -1.091,-0.782 -1.676,-0.443z"/>
     <path id="svg_13" d="m40.702572,51.407414c-0.581,0.34 -0.78,1.09 -0.44,1.675c0.227,0.393 0.637,0.609 1.06,0.609c0.208,0 0.42,-0.052 0.615,-0.165c0.585,-0.34 0.781,-1.091 0.441,-1.675c-0.34,-0.586 -1.091,-0.785 -1.676,-0.444z"/>
     <path id="svg_14" d="m36.705572,53.731414c-0.585,0.34 -0.783,1.091 -0.443,1.676c0.227,0.392 0.637,0.609 1.06,0.609c0.208,0 0.419,-0.052 0.615,-0.166c0.585,-0.34 0.784,-1.09 0.444,-1.675s-1.091,-0.784 -1.676,-0.444z"/>
     <path id="svg_15" d="m21.366572,48.987414c0.674,0 1.223,0.552 1.22,1.228c0.003,-0.676 -0.542,-1.228 -1.22,-1.228z"/>
     <path id="svg_16" d="m21.339572,58.237414c0.677,0.003 1.223,0.551 1.223,1.228c0.003,-0.677 -0.546,-1.225 -1.223,-1.228z"/>
     <path id="svg_17" d="m20.233572,50.686414c0.184,0.439 0.617,0.749 1.125,0.751c-0.507,-0.002 -0.94,-0.312 -1.125,-0.751z"/>
     <path id="svg_18" d="m20.112572,59.459414c0.001,-0.338 0.139,-0.645 0.36,-0.865c-0.223,0.22 -0.36,0.526 -0.36,0.865z"/>
     <path id="svg_19" d="m20.112572,59.459414c-0.004,0.677 0.545,1.229 1.222,1.229c-0.677,-0.004 -1.226,-0.552 -1.222,-1.229z"/>
     <path id="svg_20" d="m20.163572,40.957414c-0.003,0.677 0.545,1.228 1.222,1.228c-0.677,-0.004 -1.222,-0.551 -1.222,-1.228z"/>
     <path id="svg_21" d="m21.379572,44.359414c-0.593,0 -1.088,0.417 -1.203,0.976c-0.017,0.079 -0.025,0.356 -0.025,0.441c-0.003,0.676 0.546,1.422 1.222,1.422l0.003,0c0.674,0 1.222,-0.739 1.225,-1.413c0,-0.085 -0.008,-0.265 -0.024,-0.345c-0.114,-0.558 -0.606,-1.078 -1.198,-1.081z"/>
     <path id="svg_22" d="m21.352572,53.612414c-0.677,-0.003 -1.226,0.612 -1.229,1.29c0,0.676 0.546,1.296 1.223,1.296l0.003,0c0.677,0 1.225,-0.612 1.225,-1.29c0.002,-0.678 -0.545,-1.293 -1.222,-1.296z"/>
     <path id="svg_23" d="m21.366572,48.987414c-0.084,0 -0.167,0.008 -0.247,0.024c-0.559,0.111 -0.981,0.605 -0.983,1.194c0,0.171 0.034,0.212 0.097,0.36c0.185,0.441 0.618,0.633 1.125,0.633c0.003,0 0.003,0 0.003,0c0.001,0 0.002,0 0.003,0c0.59,0 1.083,-0.3 1.197,-0.856c0.017,-0.08 0.025,-0.103 0.025,-0.187c0.003,-0.676 -0.546,-1.168 -1.22,-1.168z"/>
     <path id="svg_24" d="m21.391572,39.734414c-0.677,-0.003 -1.225,0.552 -1.228,1.229c0,0.677 0.545,1.235 1.222,1.235l0.003,0c0.678,0 1.223,-0.552 1.226,-1.229c0.002,-0.677 -0.545,-1.232 -1.223,-1.235z"/>
     <path id="svg_25" d="m21.339572,58.237414c-0.339,-0.002 -0.645,0.135 -0.867,0.356c-0.222,0.221 -0.359,0.783 -0.36,1.121c-0.004,0.677 0.545,1.484 1.221,1.484c0,0 0,0 0.003,0c0.674,0 1.223,-0.801 1.226,-1.478c0,-0.676 -0.546,-1.48 -1.223,-1.483z"/>
     <path id="svg_26" d="m21.322572,62.865414c-0.322,0 -0.638,0.129 -0.864,0.358c-0.229,0.227 -0.358,0.542 -0.358,0.866c0,0.322 0.129,0.638 0.358,0.864c0.227,0.229 0.542,0.358 0.864,0.358c0.324,0 0.64,-0.129 0.866,-0.358c0.229,-0.227 0.361,-0.542 0.361,-0.864c0,-0.324 -0.132,-0.64 -0.361,-0.866c-0.227,-0.229 -0.542,-0.358 -0.866,-0.358z"/>
     <path id="svg_27" d="m17.909572,60.702414c-0.585,-0.336 -1.335,-0.138 -1.672,0.451c-0.337,0.585 -0.138,1.335 0.447,1.672c0.193,0.113 0.404,0.166 0.613,0.166c0.422,0 0.836,-0.222 1.062,-0.613c0.337,-0.588 0.138,-1.335 -0.45,-1.676z"/>
     <path id="svg_28" d="m-2.216428,49.082414c-0.585,-0.337 -1.335,-0.138 -1.672,0.45c-0.34,0.586 -0.138,1.336 0.447,1.673c0.193,0.11 0.404,0.165 0.612,0.165c0.423,0 0.833,-0.221 1.063,-0.612c0.337,-0.588 0.138,-1.336 -0.45,-1.676z"/>
     <path id="svg_29" d="m-6.241428,46.758414c-0.588,-0.337 -1.335,-0.138 -1.672,0.45c-0.34,0.585 -0.138,1.335 0.447,1.672c0.193,0.113 0.404,0.166 0.613,0.166c0.422,0 0.833,-0.221 1.06,-0.612c0.339,-0.59 0.137,-1.337 -0.448,-1.676z"/>
     <path id="svg_30" d="m9.860572,56.056414c-0.588,-0.34 -1.335,-0.139 -1.675,0.446c-0.337,0.586 -0.135,1.336 0.45,1.673c0.193,0.113 0.404,0.165 0.609,0.165c0.426,0 0.836,-0.22 1.063,-0.612c0.34,-0.585 0.138,-1.335 -0.447,-1.672z"/>
     <path id="svg_31" d="m5.835572,53.731414c-0.588,-0.34 -1.335,-0.138 -1.675,0.447c-0.337,0.588 -0.138,1.336 0.45,1.676c0.193,0.11 0.401,0.162 0.609,0.162c0.426,0 0.836,-0.218 1.063,-0.612c0.34,-0.586 0.138,-1.336 -0.447,-1.673z"/>
     <path id="svg_32" d="m13.885572,58.378414c-0.585,-0.337 -1.335,-0.138 -1.672,0.45c-0.34,0.585 -0.138,1.336 0.447,1.672c0.193,0.113 0.404,0.166 0.612,0.166c0.423,0 0.833,-0.221 1.063,-0.613c0.337,-0.588 0.137,-1.335 -0.45,-1.675z"/>
     <path id="svg_33" d="m1.807572,51.407414c-0.585,-0.338 -1.335,-0.139 -1.672,0.447c-0.337,0.588 -0.138,1.335 0.447,1.675c0.193,0.11 0.404,0.165 0.613,0.165c0.422,0 0.836,-0.22 1.062,-0.612c0.338,-0.588 0.138,-1.338 -0.45,-1.675z"/>
     <path id="svg_34" d="m-10.878428,44.270414c-0.325,0 -0.64,0.132 -0.867,0.358c-0.229,0.229 -0.358,0.545 -0.358,0.867c0,0.321 0.129,0.637 0.358,0.866c0.227,0.227 0.542,0.358 0.867,0.358c0.322,0 0.637,-0.132 0.867,-0.358c0.227,-0.229 0.358,-0.545 0.358,-0.866c0,-0.322 -0.132,-0.638 -0.358,-0.867c-0.23,-0.226 -0.545,-0.358 -0.867,-0.358z"/>
     <path id="svg_35" d="m-10.863428,39.645414c-0.677,-0.003 -1.229,0.597 -1.229,1.273c-0.002,0.677 0.546,1.28 1.223,1.28c0,0 0,0 0.003,0c0.674,0 1.222,-0.6 1.225,-1.273c0.004,-0.677 -0.545,-1.28 -1.222,-1.28z"/>
     <path id="svg_36" d="m68.746572,38.198414l-94.948,0c-0.254,0 -0.459,0.246 -0.459,0.5s0.205,0.5 0.459,0.5l94.949,0c0.254,0 0.46,-0.246 0.46,-0.5s-0.207,-0.5 -0.461,-0.5z"/>
    </g>
   </g>
  </g>
 </g>
</svg>