<svg
  xmlns="http://www.w3.org/2000/svg"
  xmlns:xlink="http://www.w3.org/1999/xlink"
  version="1.1"
	viewBox="0 0 2203 3200"
>
  <g transform="scale(10.02726574786944) translate(10, 10)">
    <defs id="SvgjsDefs1237" />
    <g
      id="SvgjsG1238"
      featureKey="wlqSIC-0"
      transform="matrix(1.4000000000000001,0,0,1.4000000000000001,27,124.24780006408692)"
      fill="currentColor"
    >
      <path
        xmlns="http://www.w3.org/2000/svg"
        d="M49.813,74H43v4.238V87h-9v-8.762V74H5l21.11-27h-8.888l15.426-20h-6.409L38.263,9.823L50.287,27h-6.408l15.426,20h-8.888  l7.337,9.134L50.952,65h5.532L49.813,74z M95,78L81.27,61h5.781L77.017,48h4.168l-7.821-11.172L65.544,48h4.168L59.679,61h5.781  l-13.73,17H69v12h9V78H95z"
      />
    </g>
    <g
      id="SvgjsG1239"
      featureKey="dB2fgN-0"
      transform="matrix(21.90789501174996,0,0,21.90789501174996,-41.186842517624946,-138.9736902584991)"
      fill="currentColor"
    >
      <path d="M7.04 6.800000000000001 c1.36 0 2.38 0.38 3.06 1.12 c0.6 0.66 0.9 1.64 0.9 2.84 l0 5.3 c0 2.42 -1.4 3.94 -3.96 3.94 l-5 0 c-0.1 0 -0.16 -0.08 -0.16 -0.18 l0 -12.84 c0 -0.1 0.06 -0.18 0.16 -0.18 l5 0 z M8.38 15.46 l0 -4.1 c0 -1.26 -0.66 -2.06 -2.06 -2.06 l-1.8 0 l0 8.2 l1.8 0 c1.2 0 2.06 -0.78 2.06 -2.04 z M3.1 8.02 l0 10.76 c0 0.08 0.08 0.1 0.12 0.1 l3.26 0 c2.3 0 3.34 -1.38 3.34 -2.66 l0 -5.12 c0 -2.12 -1.12 -3.2 -3.4 -3.2 l-3.2 0 c-0.04 0 -0.12 0.02 -0.12 0.12 z M9.58 11.1 l0 5.12 c0 1.6 -1.6 2.44 -3.1 2.44 l-3.14 0 l0 -10.5 l3.08 0 c2.1 0 3.16 0.94 3.16 2.94 z" />
    </g>
  </g>
</svg>